<svg width="172" height="25" fill="none" xmlns="http://www.w3.org/2000/svg"><path d="M.38 24V1.12h7.616l2.784 10.016 1.313 5.216h.063c.598-2.517 1.024-4.256 1.28-5.216L16.254 1.12h7.68V24h-5.184V12.48l.096-4.576h-.064c-.534 2.283-.886 3.701-1.056 4.256L14.427 24H9.756L6.492 12.192 5.436 7.904h-.064c.064 2.453.096 3.99.096 4.608V24H.38zM27.068 24V1.12h17.344v4.672h-11.68v4.096h10.016v4.416H32.732V19.2h11.872V24H27.068zM47.162 24V1.12h5.664V19.2h10.272V24H47.162zM63.968 24l8.224-22.88h5.824L86.272 24H80.32l-1.344-4.128h-8L69.664 24h-5.696zm8.32-8.192h5.376l-1.728-5.536-.896-3.232h-.064a65.696 65.696 0 01-.928 3.232l-1.76 5.536zM87.88 24V1.12h5.697l6.783 11.488 1.568 2.912h.064a209.678 209.678 0 01-.064-3.552V1.12h5.536V24h-5.696l-6.72-11.328L93.416 9.6h-.063c.042 1.963.064 3.21.064 3.744V24H87.88zM110.631 24V1.12h5.664V24h-5.664zM128.563 24.544c-3.093 0-5.557-.661-7.392-1.984-1.813-1.344-2.752-3.264-2.816-5.76h5.696c.235 2.176 1.728 3.264 4.48 3.264 1.024 0 1.888-.192 2.592-.576.725-.405 1.088-1.013 1.088-1.824 0-.555-.224-1.013-.672-1.376-.448-.384-.907-.65-1.376-.8-.448-.15-1.312-.384-2.592-.704a.529.529 0 00-.128-.032c-.021-.021-.053-.032-.096-.032a.284.284 0 00-.128-.032c-.981-.235-1.792-.437-2.432-.608a19.555 19.555 0 01-2.144-.832c-.789-.384-1.419-.8-1.888-1.248-.469-.448-.875-1.035-1.216-1.76-.32-.747-.48-1.579-.48-2.496 0-2.347.832-4.107 2.496-5.28 1.685-1.173 3.883-1.76 6.592-1.76 2.603 0 4.725.597 6.368 1.792 1.664 1.195 2.549 2.944 2.656 5.248h-5.536c-.107-.875-.48-1.547-1.12-2.016-.64-.49-1.493-.736-2.56-.736-.981 0-1.781.203-2.4.608-.597.384-.896.896-.896 1.536 0 .725.363 1.259 1.088 1.6.725.32 2.091.704 4.096 1.152 1.259.299 2.293.597 3.104.896.811.277 1.632.683 2.464 1.216.853.533 1.483 1.227 1.888 2.08.427.832.64 1.835.64 3.008 0 2.325-.885 4.15-2.656 5.472-1.749 1.323-3.989 1.984-6.72 1.984zM140.255 24V1.12h5.664v8.672h8.032V1.12h5.664V24h-5.664v-9.536h-8.032V24h-5.664zM166.837 7.352l-1.184-.864 1.184-1.568-1.872-.624.512-1.328 1.776.624V1.56h1.504v2.032l1.776-.624.512 1.328-1.872.624 1.184 1.568-1.152.864-1.184-1.664-1.184 1.664z" fill="#fff"/></svg>
